<?xml version="1.0" encoding="utf-8"?>
<!-- Generator: Adobe Illustrator 22.0.1, SVG Export Plug-In . SVG Version: 6.00 Build 0)  -->
<svg version="1.1" id="Layer_1" xmlns="http://www.w3.org/2000/svg" xmlns:xlink="http://www.w3.org/1999/xlink" x="0px" y="0px"
	 viewBox="0 0 1042 117" style="enable-background:new 0 0 1042 117;" xml:space="preserve">
<style type="text/css">
	.st0{enable-background:new    ;}
	.st1{fill:#333838;}
	.st2{fill:#F3732B;}
</style>
<g>
	<title>Layer 1</title>
	<g id="svg_4">
		<g id="svg_4_1_" class="st0">
			<path class="st1" d="M8.1,6.8h42.1c21.6,0,36.3,13,36.3,33.7C86.4,64.2,69.7,75,49.7,75H30.1v40.7h-22V6.8z M30.1,56.3h16.8
				c10.2,0,17.4-4.2,17.4-15.3c0-11.2-7.6-15.4-16.9-15.4H30.1V56.3z"/>
			<path class="st1" d="M198.1,60.9c0,30.3-17,56.4-50,56.4c-31.9,0-48.6-24.8-48.6-56c0-31.7,18.5-56,50-56
				C179.3,5.2,198.1,27.5,198.1,60.9z M122.2,60.8c0,21.3,8.7,37.3,26.7,37.3c19.6,0,26.5-17.5,26.5-37c0-20.6-7.9-36.8-26.8-36.8
				C130.2,24.4,122.2,39.6,122.2,60.8z"/>
			<path class="st1" d="M239.3,6.8v108.9h-22V6.8H239.3z"/>
			<path class="st1" d="M263.5,115.7V6.8h27.3c12.7,24.5,36.2,68.6,40.9,80.4h0.3c-1.1-11.4-1.1-30.3-1.1-48.2V6.8h19.9v108.9h-25.9
				c-10.9-21.3-36.9-72-42-84.5h-0.3c0.7,9.5,1,31.9,1,51.4v33.1H263.5z"/>
			<path class="st1" d="M395.3,26.1h-30.9V6.8h83.7v19.3h-30.8v89.6h-22V26.1z"/>
			<path class="st1" d="M589.3,26.1h-30.9V6.8h83.7v19.3h-30.8v89.6h-22V26.1z"/>
			<path class="st1" d="M674.9,90.5l-7.9,25.2h-21.6L679.8,6.8h27.6l36,108.9h-23.1L712,90.5H674.9z M707.3,71.2
				c-7.2-23-11.8-37.7-14.3-47.5h-0.1c-2.5,10.7-7.6,27.8-13.4,47.5H707.3z"/>
			<path class="st1" d="M757.2,6.8H779v48.6c6.7-8.4,27.6-32.9,40.5-48.6h26.3l-40.9,45.3l42.4,63.7h-26.4l-31.2-48.4l-10.7,11v37.4
				h-21.7V6.8z"/>
			<path class="st1" d="M926.9,68.7h-48.6v27.7h53.7l-2.6,19.3h-72.4V6.8H929v19.3h-50.8v23.3h48.6V68.7z"/>
			<path class="st1" d="M948.1,115.7V6.8h27.3c12.7,24.5,36.2,68.6,40.9,80.4h0.3c-1.1-11.4-1.1-30.3-1.1-48.2V6.8h19.9v108.9h-25.9
				c-10.9-21.3-36.9-72-42-84.5h-0.3c0.7,9.5,1,31.9,1,51.4v33.1H948.1z"/>
		</g>
	</g>
	<polygon id="svg_5" class="st1" points="433.5,182.6 433.5,182.6 433.5,182.6 433.5,182.6 	"/>
	<polygon id="svg_7" class="st2" points="493.5,66.6 493.5,66.6 493.5,66.6 493.5,66.6 	"/>
	<ellipse id="svg_8" class="st2" cx="507.7" cy="30.7" rx="20" ry="20"/>
	
		<ellipse id="svg_16" transform="matrix(0.1602 -0.9871 0.9871 0.1602 336.266 577.8292)" class="st2" cx="507.7" cy="91.3" rx="20" ry="20"/>
</g>
<g>
	<g>
	</g>
</g>
<g>
	<g>
	</g>
</g>
</svg>
