<svg xmlns="http://www.w3.org/2000/svg" width="1920" height="1080"><path d="M6,1356L-298,1326L796,1492Z" fill="#c86d5a" stroke="#c86d5a" stroke-width="1.51"/><path d="M-393,-305L797,-349L1586,-398Z" fill="#ffbca6" stroke="#ffbca6" stroke-width="1.51"/><path d="M797,-349L1117,-315L1586,-398Z" fill="#ffa38a" stroke="#ffa38a" stroke-width="1.51"/><path d="M1385,1399L1188,1462L1893,1401Z" fill="#af191b" stroke="#af191b" stroke-width="1.51"/><path d="M1586,-398L1919,-252L2178,-277Z" fill="#e38875" stroke="#e38875" stroke-width="1.51"/><path d="M2195,216L2224,482L2250,66Z" fill="#c05542" stroke="#c05542" stroke-width="1.51"/><path d="M2187,1010L1941,1157L2276,1321Z" fill="#a50f16" stroke="#a50f16" stroke-width="1.51"/><path d="M2224,482L2026,741L2321,873Z" fill="#bd2d24" stroke="#bd2d24" stroke-width="1.51"/><path d="M2026,741L2187,1010L2321,873Z" fill="#b51d1c" stroke="#b51d1c" stroke-width="1.51"/><path d="M2187,1010L2276,1321L2321,873Z" fill="#a00d16" stroke="#a00d16" stroke-width="1.51"/><path d="M2250,66L2224,482L2321,873Z" fill="#ba4131" stroke="#ba4131" stroke-width="1.51"/><path d="M2178,-277L1940,50L2250,66Z" fill="#cd725e" stroke="#cd725e" stroke-width="1.51"/><path d="M1941,1157L1893,1401L2276,1321Z" fill="#a40f15" stroke="#a40f15" stroke-width="1.51"/><path d="M1919,-252L1940,50L2178,-277Z" fill="#da7e69" stroke="#da7e69" stroke-width="1.51"/><path d="M2195,216L1921,572L2224,482Z" fill="#c94a36" stroke="#c94a36" stroke-width="1.51"/><path d="M1921,572L2026,741L2224,482Z" fill="#cb3b2b" stroke="#cb3b2b" stroke-width="1.51"/><path d="M1940,50L2195,216L2250,66Z" fill="#ca6550" stroke="#ca6550" stroke-width="1.51"/><path d="M1901,158L1921,572L2195,216Z" fill="#d25640" stroke="#d25640" stroke-width="1.51"/><path d="M2026,741L1941,1157L2187,1010Z" fill="#bb191b" stroke="#bb191b" stroke-width="1.51"/><path d="M1940,50L1901,158L2195,216Z" fill="#d5664f" stroke="#d5664f" stroke-width="1.51"/><path d="M1901,158L1698,590L1921,572Z" fill="#db4e38" stroke="#db4e38" stroke-width="1.51"/><path d="M1614,797L1730,1203L1941,1157Z" fill="#c5171c" stroke="#c5171c" stroke-width="1.51"/><path d="M1921,572L1698,590L2026,741Z" fill="#d63b2b" stroke="#d63b2b" stroke-width="1.51"/><path d="M1698,590L1614,797L2026,741Z" fill="#d93428" stroke="#d93428" stroke-width="1.51"/><path d="M1614,797L1941,1157L2026,741Z" fill="#cb211f" stroke="#cb211f" stroke-width="1.51"/><path d="M-393,-305L-72,-239L797,-349Z" fill="#fed8c8" stroke="#fed8c8" stroke-width="1.51"/><path d="M1646,1298L1385,1399L1893,1401Z" fill="#af1318" stroke="#af1318" stroke-width="1.51"/><path d="M1580,161L1698,590L1901,158Z" fill="#e25c45" stroke="#e25c45" stroke-width="1.51"/><path d="M1919,-252L1673,-103L1940,50Z" fill="#e27d67" stroke="#e27d67" stroke-width="1.51"/><path d="M1730,1203L1893,1401L1941,1157Z" fill="#b01117" stroke="#b01117" stroke-width="1.51"/><path d="M1673,-103L1901,158L1940,50Z" fill="#df725a" stroke="#df725a" stroke-width="1.51"/><path d="M1673,-103L1580,161L1901,158Z" fill="#e57259" stroke="#e57259" stroke-width="1.51"/><path d="M1586,-398L1673,-103L1919,-252Z" fill="#eb8974" stroke="#eb8974" stroke-width="1.51"/><path d="M1730,1203L1646,1298L1893,1401Z" fill="#b21218" stroke="#b21218" stroke-width="1.51"/><path d="M1482,160L1347,568L1580,161Z" fill="#ef654a" stroke="#ef654a" stroke-width="1.51"/><path d="M1117,-315L1377,-308L1586,-398Z" fill="#ff9982" stroke="#ff9982" stroke-width="1.51"/><path d="M1580,161L1347,568L1698,590Z" fill="#eb563d" stroke="#eb563d" stroke-width="1.51"/><path d="M1408,1193L1646,1298L1730,1203Z" fill="#c0191b" stroke="#c0191b" stroke-width="1.51"/><path d="M1614,797L1408,1193L1730,1203Z" fill="#cd1d1e" stroke="#cd1d1e" stroke-width="1.51"/><path d="M1377,-308L1413,-101L1586,-398Z" fill="#f9927c" stroke="#f9927c" stroke-width="1.51"/><path d="M1586,-398L1413,-101L1673,-103Z" fill="#f48c75" stroke="#f48c75" stroke-width="1.51"/><path d="M1413,-101L1580,161L1673,-103Z" fill="#f07d64" stroke="#f07d64" stroke-width="1.51"/><path d="M1446,743L1614,797L1698,590Z" fill="#e3392b" stroke="#e3392b" stroke-width="1.51"/><path d="M1347,568L1446,743L1698,590Z" fill="#ea4531" stroke="#ea4531" stroke-width="1.51"/><path d="M1413,-101L1482,160L1580,161Z" fill="#f1795e" stroke="#f1795e" stroke-width="1.51"/><path d="M1446,743L1408,1193L1614,797Z" fill="#dd2c25" stroke="#dd2c25" stroke-width="1.51"/><path d="M1408,1193L1385,1399L1646,1298Z" fill="#c01e1d" stroke="#c01e1d" stroke-width="1.51"/><path d="M-72,-239L223,-216L797,-349Z" fill="#ffccb8" stroke="#ffccb8" stroke-width="1.51"/><path d="M1193,831L1408,1193L1446,743Z" fill="#e43127" stroke="#e43127" stroke-width="1.51"/><path d="M1193,831L1123,1163L1408,1193Z" fill="#dc3127" stroke="#dc3127" stroke-width="1.51"/><path d="M1413,-101L1096,217L1482,160Z" fill="#f97d60" stroke="#f97d60" stroke-width="1.51"/><path d="M1096,217L1347,568L1482,160Z" fill="#f7694d" stroke="#f7694d" stroke-width="1.51"/><path d="M1002,41L1096,217L1413,-101Z" fill="#fc886a" stroke="#fc886a" stroke-width="1.51"/><path d="M1347,568L1193,831L1446,743Z" fill="#f14330" stroke="#f14330" stroke-width="1.51"/><path d="M1096,217L1018,533L1347,568Z" fill="#f9684a" stroke="#f9684a" stroke-width="1.51"/><path d="M1123,1163L1188,1462L1385,1399Z" fill="#c42c23" stroke="#c42c23" stroke-width="1.51"/><path d="M1123,1163L1385,1399L1408,1193Z" fill="#cc2821" stroke="#cc2821" stroke-width="1.51"/><path d="M1377,-308L1117,-315L1413,-101Z" fill="#ff977e" stroke="#ff977e" stroke-width="1.51"/><path d="M1117,-315L1002,41L1413,-101Z" fill="#ff967a" stroke="#ff967a" stroke-width="1.51"/><path d="M455,1361L6,1356L796,1492Z" fill="#c45e4a" stroke="#c45e4a" stroke-width="1.51"/><path d="M1018,533L1193,831L1347,568Z" fill="#f5533a" stroke="#f5533a" stroke-width="1.51"/><path d="M223,-216L559,-252L797,-349Z" fill="#ffc0aa" stroke="#ffc0aa" stroke-width="1.51"/><path d="M1123,1163L796,1492L1188,1462Z" fill="#c3392a" stroke="#c3392a" stroke-width="1.51"/><path d="M1018,533L799,748L1193,831Z" fill="#f7593e" stroke="#f7593e" stroke-width="1.51"/><path d="M758,1083L1123,1163L1193,831Z" fill="#e34331" stroke="#e34331" stroke-width="1.51"/><path d="M799,748L758,1083L1193,831Z" fill="#ee523a" stroke="#ee523a" stroke-width="1.51"/><path d="M793,350L1018,533L1096,217Z" fill="#fc7857" stroke="#fc7857" stroke-width="1.51"/><path d="M797,-349L1002,41L1117,-315Z" fill="#ffa78c" stroke="#ffa78c" stroke-width="1.51"/><path d="M758,1083L796,1492L1123,1163Z" fill="#d34733" stroke="#d34733" stroke-width="1.51"/><path d="M1002,41L793,350L1096,217Z" fill="#fd8766" stroke="#fd8766" stroke-width="1.51"/><path d="M797,-349L758,54L1002,41Z" fill="#ffa487" stroke="#ffa487" stroke-width="1.51"/><path d="M758,54L793,350L1002,41Z" fill="#fe9171" stroke="#fe9171" stroke-width="1.51"/><path d="M784,606L799,748L1018,533Z" fill="#fa6849" stroke="#fa6849" stroke-width="1.51"/><path d="M793,350L784,606L1018,533Z" fill="#fc7353" stroke="#fc7353" stroke-width="1.51"/><path d="M559,741L533,1141L758,1083Z" fill="#e96047" stroke="#e96047" stroke-width="1.51"/><path d="M559,-252L631,68L758,54Z" fill="#feab8e" stroke="#feab8e" stroke-width="1.51"/><path d="M631,68L567,158L758,54Z" fill="#fda082" stroke="#fda082" stroke-width="1.51"/><path d="M460,612L784,606L793,350Z" fill="#fc7c5b" stroke="#fc7c5b" stroke-width="1.51"/><path d="M758,54L567,158L793,350Z" fill="#fd9575" stroke="#fd9575" stroke-width="1.51"/><path d="M758,1083L533,1141L796,1492Z" fill="#d5543e" stroke="#d5543e" stroke-width="1.51"/><path d="M533,1141L455,1361L796,1492Z" fill="#cc5741" stroke="#cc5741" stroke-width="1.51"/><path d="M559,-252L758,54L797,-349Z" fill="#ffb299" stroke="#ffb299" stroke-width="1.51"/><path d="M784,606L559,741L799,748Z" fill="#f96c4e" stroke="#f96c4e" stroke-width="1.51"/><path d="M559,741L758,1083L799,748Z" fill="#f26246" stroke="#f26246" stroke-width="1.51"/><path d="M567,158L460,612L793,350Z" fill="#fc8c6b" stroke="#fc8c6b" stroke-width="1.51"/><path d="M460,612L559,741L784,606Z" fill="#fa7657" stroke="#fa7657" stroke-width="1.51"/><path d="M346,1315L6,1356L455,1361Z" fill="#cd6a55" stroke="#cd6a55" stroke-width="1.51"/><path d="M337,203L235,492L460,612Z" fill="#fe9677" stroke="#fe9677" stroke-width="1.51"/><path d="M282,857L533,1141L559,741Z" fill="#f06e53" stroke="#f06e53" stroke-width="1.51"/><path d="M337,203L460,612L567,158Z" fill="#fd9879" stroke="#fd9879" stroke-width="1.51"/><path d="M245,-20L567,158L631,68Z" fill="#fdac8f" stroke="#fdac8f" stroke-width="1.51"/><path d="M559,-252L245,-20L631,68Z" fill="#feb69c" stroke="#feb69c" stroke-width="1.51"/><path d="M346,1315L455,1361L533,1141Z" fill="#d4634b" stroke="#d4634b" stroke-width="1.51"/><path d="M223,-216L245,-20L559,-252Z" fill="#fec5ae" stroke="#fec5ae" stroke-width="1.51"/><path d="M245,-20L337,203L567,158Z" fill="#fdae91" stroke="#fdae91" stroke-width="1.51"/><path d="M460,612L282,857L559,741Z" fill="#fa7b5c" stroke="#fa7b5c" stroke-width="1.51"/><path d="M154,1071L346,1315L533,1141Z" fill="#dd6b54" stroke="#dd6b54" stroke-width="1.51"/><path d="M282,857L154,1071L533,1141Z" fill="#e97158" stroke="#e97158" stroke-width="1.51"/><path d="M235,492L282,857L460,612Z" fill="#fc8769" stroke="#fc8769" stroke-width="1.51"/><path d="M-35,338L235,492L337,203Z" fill="#fea689" stroke="#fea689" stroke-width="1.51"/><path d="M154,1071L6,1356L346,1315Z" fill="#d9735d" stroke="#d9735d" stroke-width="1.51"/><path d="M235,492L-78,866L282,857Z" fill="#fd8b6f" stroke="#fd8b6f" stroke-width="1.51"/><path d="M245,-20L36,-37L337,203Z" fill="#fdbca3" stroke="#fdbca3" stroke-width="1.51"/><path d="M36,-37L-35,338L337,203Z" fill="#feb89e" stroke="#feb89e" stroke-width="1.51"/><path d="M-117,508L-78,866L235,492Z" fill="#ff9b7f" stroke="#ff9b7f" stroke-width="1.51"/><path d="M-78,866L154,1071L282,857Z" fill="#f28168" stroke="#f28168" stroke-width="1.51"/><path d="M223,-216L36,-37L245,-20Z" fill="#fec9b3" stroke="#fec9b3" stroke-width="1.51"/><path d="M-35,338L-117,508L235,492Z" fill="#ffa78b" stroke="#ffa78b" stroke-width="1.51"/><path d="M-72,-239L36,-37L223,-216Z" fill="#fed3c1" stroke="#fed3c1" stroke-width="1.51"/><path d="M-128,1182L6,1356L154,1071Z" fill="#df7d68" stroke="#df7d68" stroke-width="1.51"/><path d="M-78,866L-128,1182L154,1071Z" fill="#ec836d" stroke="#ec836d" stroke-width="1.51"/><path d="M-72,-239L-370,-126L36,-37Z" fill="#fedbcb" stroke="#fedbcb" stroke-width="1.51"/><path d="M-370,-126L-386,166L36,-37Z" fill="#ffd4c3" stroke="#ffd4c3" stroke-width="1.51"/><path d="M-386,166L-35,338L36,-37Z" fill="#ffc5af" stroke="#ffc5af" stroke-width="1.51"/><path d="M-304,1041L-128,1182L-78,866Z" fill="#ef8b76" stroke="#ef8b76" stroke-width="1.51"/><path d="M-117,508L-343,555L-78,866Z" fill="#ffa288" stroke="#ffa288" stroke-width="1.51"/><path d="M-343,555L-348,836L-78,866Z" fill="#ff9c84" stroke="#ff9c84" stroke-width="1.51"/><path d="M-128,1182L-298,1326L6,1356Z" fill="#da826f" stroke="#da826f" stroke-width="1.51"/><path d="M-386,166L-117,508L-35,338Z" fill="#ffb8a0" stroke="#ffb8a0" stroke-width="1.51"/><path d="M-386,166L-343,555L-117,508Z" fill="#ffb69e" stroke="#ffb69e" stroke-width="1.51"/><path d="M-348,836L-304,1041L-78,866Z" fill="#f8937c" stroke="#f8937c" stroke-width="1.51"/><path d="M-393,-305L-370,-126L-72,-239Z" fill="#ffe5da" stroke="#ffe5da" stroke-width="1.51"/><path d="M-304,1041L-298,1326L-128,1182Z" fill="#e48875" stroke="#e48875" stroke-width="1.51"/><path d="M-304,1041L-348,836L-298,1326Z" fill="#ee8e7a" stroke="#ee8e7a" stroke-width="1.51"/><path d="M-386,166L-348,836L-343,555Z" fill="#ffb098" stroke="#ffb098" stroke-width="1.51"/><path d="M-393,-305L-386,166L-370,-126Z" fill="#ffdfd1" stroke="#ffdfd1" stroke-width="1.51"/></svg>