<?xml version="1.0" standalone="no"?>
<!DOCTYPE svg PUBLIC "-//W3C//DTD SVG 20010904//EN"
 "http://www.w3.org/TR/2001/REC-SVG-20010904/DTD/svg10.dtd">
<svg version="1.0" xmlns="http://www.w3.org/2000/svg"
 width="1673.000000pt" height="182.000000pt" viewBox="0 0 1673.000000 182.000000"
 preserveAspectRatio="xMidYMid meet">

<g transform="translate(0.000000,182.000000) scale(0.100000,-0.100000)"
fill="#000000" stroke="none">
<path d="M2090 1784 c-14 -2 -52 -9 -85 -15 -270 -48 -446 -236 -511 -543 -35
-166 -34 -520 1 -691 77 -370 324 -544 740 -522 215 12 344 64 465 186 86 87
128 158 163 281 40 136 50 254 44 497 -6 254 -23 348 -87 481 -74 155 -201
257 -377 303 -75 19 -293 34 -353 23z m252 -284 c72 -21 130 -70 166 -140 50
-99 64 -196 64 -455 0 -253 -14 -354 -62 -451 -35 -71 -71 -106 -150 -143 -50
-24 -66 -26 -175 -26 -150 1 -213 22 -275 92 -80 91 -105 238 -97 577 6 296
24 369 109 462 45 49 99 79 171 94 50 11 197 5 249 -10z"/>
<path d="M52 898 l3 -853 155 0 155 0 3 286 2 286 218 6 c153 4 235 10 277 21
173 47 281 145 335 306 32 92 39 303 16 419 -32 157 -110 266 -232 323 -112
52 -164 58 -567 58 l-367 0 2 -852z m689 572 c111 -21 150 -84 157 -249 7
-174 -20 -254 -102 -299 -25 -14 -66 -17 -228 -20 l-198 -4 0 291 0 291 159 0
c87 0 183 -5 212 -10z"/>
<path d="M3250 895 l0 -855 155 0 155 0 0 855 0 855 -155 0 -155 0 0 -855z"/>
<path d="M3970 895 l0 -855 150 0 150 0 2 630 3 630 327 -628 327 -627 203 0
203 0 3 853 2 852 -156 0 -157 0 8 -632 c4 -348 4 -630 0 -626 -4 4 -153 288
-330 630 l-322 623 -206 3 -207 2 0 -855z"/>
<path d="M5580 1610 l0 -140 240 0 240 0 0 -715 0 -716 158 3 157 3 3 713 2
712 235 0 235 0 0 140 0 140 -635 0 -635 0 0 -140z"/>
<path d="M8053 1732 c-100 -36 -175 -108 -208 -203 -22 -61 -19 -167 6 -234
29 -77 107 -155 186 -185 80 -30 196 -25 268 12 61 32 129 103 158 166 34 73
31 198 -6 273 -32 67 -100 132 -165 162 -66 29 -172 33 -239 9z"/>
<path d="M9460 1610 l0 -140 240 0 240 0 2 -712 3 -713 155 0 155 0 3 713 2
712 240 0 240 0 0 140 0 140 -640 0 -640 0 0 -140z"/>
<path d="M11215 1738 c-17 -49 -548 -1675 -549 -1683 0 -6 59 -10 163 -10
l164 0 57 185 57 185 300 3 300 2 48 -157 c26 -87 53 -173 61 -190 l13 -33
165 0 c92 0 166 3 166 7 0 7 -161 506 -436 1351 l-115 352 -195 0 c-147 0
-196 -3 -199 -12z m312 -698 l109 -355 -113 -3 c-62 -1 -164 -1 -227 0 l-113
3 111 362 c61 200 114 359 117 355 4 -4 56 -167 116 -362z"/>
<path d="M12380 895 l0 -855 155 0 155 0 0 365 0 365 79 0 79 0 258 -365 257
-365 189 0 c103 0 188 2 188 5 0 3 -137 201 -305 440 -168 239 -305 438 -305
442 0 4 128 190 284 413 l283 405 -176 3 c-96 1 -180 1 -186 -2 -5 -2 -116
-155 -245 -339 l-235 -336 -82 -1 -83 0 0 340 0 340 -155 0 -155 0 0 -855z"/>
<path d="M13970 895 l0 -855 493 2 492 3 0 135 0 135 -337 3 -338 2 0 230 0
230 305 0 305 0 0 135 0 135 -305 0 -305 0 0 215 0 215 335 0 335 0 0 135 0
135 -490 0 -490 0 0 -855z"/>
<path d="M15302 898 l3 -853 154 -3 154 -3 -7 638 -6 638 38 -70 c22 -38 166
-315 322 -615 155 -300 289 -555 296 -567 14 -23 18 -23 214 -23 l200 0 0 855
0 855 -150 0 -151 0 3 -630 c2 -483 0 -627 -9 -614 -6 8 -154 292 -329 630
l-318 614 -208 0 -208 0 2 -852z"/>
<path d="M8034 690 c-260 -103 -280 -467 -32 -601 59 -32 69 -34 153 -34 102
0 153 18 219 76 108 94 144 255 87 384 -26 60 -95 132 -156 163 -70 36 -197
41 -271 12z"/>
</g>
</svg>
